<svg version="1.1" id="Layer_1" xmlns="http://www.w3.org/2000/svg" xmlns:xlink="http://www.w3.org/1999/xlink" x="0px" y="0px"
	 width="100%" viewBox="0 0 2282 1467" enable-background="new 0 0 2282 1467" xml:space="preserve">
<path fill="#0F0035" opacity="1.000000" stroke="none" 
	d="
M2283.000000,704.000000 
	C2283.000000,724.687561 2283.000000,745.375122 2282.601074,766.693726 
	C2281.801514,771.069763 2281.347656,774.809998 2281.010498,778.560669 
	C2279.984131,789.982544 2279.347900,801.451965 2277.919922,812.822510 
	C2275.916504,828.775085 2274.160400,844.830688 2270.816895,860.526550 
	C2265.519043,885.398438 2259.556152,910.162842 2252.841064,934.689758 
	C2245.070557,963.072998 2234.131104,990.397644 2221.888672,1017.137695 
	C2215.252930,1031.631714 2208.050293,1045.898071 2200.429443,1059.900513 
	C2192.425049,1074.607910 2184.047852,1089.151611 2175.072998,1103.283813 
	C2152.949951,1138.119019 2127.567383,1170.527466 2099.529541,1200.765991 
	C2087.463623,1213.778809 2074.590088,1226.121582 2061.348389,1237.945679 
	C2045.013184,1252.532227 2028.481934,1267.019775 2010.987793,1280.154785 
	C1992.158813,1294.291992 1972.634277,1307.674194 1952.461060,1319.802002 
	C1931.510376,1332.397095 1909.518066,1343.286133 1887.783081,1354.538330 
	C1878.229492,1359.484131 1868.422974,1364.143555 1858.315796,1367.776733 
	C1834.301147,1376.409546 1810.294189,1385.237549 1785.800537,1392.311890 
	C1763.693481,1398.696777 1741.036987,1403.321045 1718.445190,1407.833618 
	C1703.959595,1410.727051 1689.190186,1412.372803 1674.478638,1413.917358 
	C1657.843750,1415.664062 1641.147705,1417.448242 1624.448120,1417.805908 
	C1602.880249,1418.268311 1581.278442,1417.483276 1559.699219,1416.927612 
	C1550.848511,1416.699829 1541.987061,1415.944214 1533.185791,1414.942871 
	C1517.492798,1413.157593 1501.787964,1411.347168 1486.188965,1408.903076 
	C1471.499512,1406.601685 1456.697388,1404.369629 1442.376953,1400.505493 
	C1416.951782,1393.644775 1391.578369,1386.367188 1366.703613,1377.760376 
	C1346.109375,1370.634521 1325.959839,1362.002075 1306.156982,1352.859375 
	C1273.904297,1337.968750 1243.285400,1320.082520 1213.900635,1300.052124 
	C1190.211670,1283.904541 1167.639771,1266.341187 1146.112671,1247.469238 
	C1133.681274,1236.571167 1121.902588,1224.918579 1110.016602,1213.413086 
	C1105.552734,1209.092285 1101.615845,1204.227051 1096.873047,1198.984863 
	C1095.381226,1200.741943 1094.402344,1202.074585 1093.246826,1203.230469 
	C1024.208740,1272.295532 955.183777,1341.373779 886.043335,1410.336182 
	C881.336609,1415.030884 875.816345,1418.927246 870.563660,1423.053711 
	C854.060974,1436.017944 835.760498,1445.847290 816.208130,1453.265503 
	C799.738220,1459.514160 782.855103,1464.357178 765.197266,1466.046265 
	C761.436951,1466.406128 757.731018,1467.333862 754.000000,1468.000000 
	C741.979126,1468.000000 729.958191,1468.000000 717.303833,1467.599487 
	C705.874084,1465.692749 694.902832,1464.948608 684.318481,1462.518799 
	C663.410583,1457.719727 643.492371,1450.129395 624.751282,1439.424805 
	C608.722473,1430.269653 593.563293,1419.885010 580.555603,1406.894897 
	C408.333191,1234.906982 236.221909,1062.807739 64.285019,890.534424 
	C55.250618,881.482300 47.534634,870.975159 40.067177,860.528992 
	C26.864525,842.059875 17.307835,821.638611 11.142933,799.807007 
	C8.082523,788.969238 6.392833,777.747803 3.964817,766.726074 
	C3.167911,763.108582 1.998870,759.572998 1.000002,756.000000 
	C1.000000,755.555542 1.000000,755.111084 1.402477,754.165649 
	C1.536635,749.443176 1.268317,745.221558 1.000000,741.000000 
	C1.000000,736.975464 1.000000,732.950928 1.402478,728.295532 
	C1.536637,723.443176 1.268319,719.221558 1.000000,715.000000 
	C1.000000,714.555542 1.000000,714.111084 1.385733,713.210754 
	C2.180933,711.570557 2.801705,710.414368 2.963943,709.197144 
	C3.738941,703.382446 3.867795,697.430298 5.184095,691.748901 
	C8.847576,675.936523 13.230596,660.387329 19.727518,645.363220 
	C30.002867,621.601379 43.133846,599.633179 61.331947,581.395142 
	C234.318588,408.029510 407.568207,234.926208 580.768311,61.773590 
	C584.258118,58.284782 587.893066,54.897850 591.749512,51.826637 
	C609.127747,37.987057 627.726685,26.172075 648.456970,17.887693 
	C666.333618,10.743711 684.587402,5.115011 703.807251,2.962918 
	C707.564331,2.542232 711.270386,1.666083 715.000000,1.000000 
	C728.354248,1.000000 741.708435,1.000000 755.693237,1.398455 
	C761.975830,2.524797 767.645203,3.138518 773.276733,4.000269 
	C798.193176,7.813062 821.542542,16.162191 843.658447,28.196098 
	C862.522949,38.460808 879.556763,51.237705 894.705688,66.324074 
	C961.183594,132.527588 1027.450073,198.943497 1093.765869,265.309631 
	C1094.995117,266.539734 1095.887451,268.106293 1097.150146,269.802216 
	C1100.383301,265.990112 1102.595825,262.877045 1105.301636,260.277344 
	C1117.711792,248.353775 1129.793457,236.026703 1142.870972,224.874069 
	C1161.212158,209.232803 1180.116943,194.227524 1199.171143,179.453934 
	C1223.082275,160.914673 1249.165283,145.658691 1275.657837,131.195862 
	C1289.217163,123.793694 1303.296021,117.273254 1317.435547,111.022736 
	C1333.435913,103.949585 1349.591675,97.149185 1365.996460,91.087204 
	C1390.741089,81.943481 1415.893921,73.960487 1441.793823,68.678795 
	C1461.749878,64.609207 1481.701294,60.423244 1501.795532,57.154598 
	C1516.763184,54.719845 1531.925659,53.272129 1547.057251,52.113640 
	C1562.359009,50.942120 1577.724609,50.487129 1593.071899,50.084599 
	C1599.645752,49.912186 1606.243042,50.682251 1612.830933,50.996773 
	C1627.003418,51.673397 1641.197876,52.044472 1655.343384,53.084644 
	C1667.880005,54.006512 1680.424927,55.245129 1692.853760,57.097778 
	C1710.309692,59.699757 1727.783325,62.431732 1745.031006,66.127480 
	C1774.137695,72.364380 1802.686890,80.589706 1830.729004,90.779930 
	C1862.701416,102.398422 1893.690552,116.033646 1923.593872,132.190277 
	C1947.752686,145.243118 1970.861328,159.934784 1993.417847,175.623505 
	C2017.976440,192.704636 2041.202026,211.424774 2062.955322,231.807404 
	C2080.474854,248.222931 2097.020508,265.780243 2112.949707,283.759949 
	C2126.969482,299.584961 2139.866455,316.446442 2152.667725,333.299500 
	C2172.224609,359.046509 2188.974121,386.628723 2203.989990,415.241180 
	C2217.009766,440.050232 2229.279297,465.246307 2238.279541,491.832031 
	C2246.206299,515.246216 2254.369385,538.646179 2260.729492,562.505188 
	C2266.376465,583.688721 2269.882568,605.457886 2273.954346,627.040161 
	C2276.061279,638.207336 2277.651123,649.495850 2278.907227,660.792603 
	C2280.014648,670.749023 2280.224121,680.802185 2281.052246,690.794250 
	C2281.418945,695.219604 2282.333984,699.599487 2283.000000,704.000000 
M925.996277,617.351501 
	C925.330872,620.842407 924.480164,624.309814 924.034363,627.828552 
	C922.600037,639.150818 921.152649,650.475708 920.012695,661.829956 
	C918.523926,676.658936 916.502930,691.500000 916.196350,706.366516 
	C915.758362,727.601807 916.512756,748.868896 917.070679,770.114197 
	C917.316284,779.464600 918.033569,788.827942 919.064270,798.126892 
	C920.822388,813.989441 922.581787,829.872498 925.111572,845.623108 
	C927.698975,861.733032 930.403442,877.905334 934.515991,893.669617 
	C940.310608,915.881592 946.558411,938.060120 954.253906,959.668396 
	C962.538452,982.930664 971.754761,1005.975586 982.344910,1028.269653 
	C992.766663,1050.209229 1004.773254,1071.477783 1017.298889,1092.310547 
	C1027.357788,1109.040771 1038.799316,1124.999756 1050.424316,1140.711182 
	C1061.748291,1156.015625 1074.017090,1170.625732 1086.019409,1185.420288 
	C1089.396484,1189.583130 1093.296021,1193.322021 1097.031250,1197.336426 
	C1098.178223,1196.245117 1099.031860,1195.468018 1099.847168,1194.652588 
	C1203.659424,1090.844360 1307.482178,987.046448 1411.231689,883.175476 
	C1415.495483,878.906555 1419.356079,874.158142 1422.915771,869.276855 
	C1435.116089,852.548218 1445.407471,834.702881 1452.922729,815.368774 
	C1461.543213,793.191833 1466.407104,770.107788 1467.845337,746.418030 
	C1468.444092,736.556030 1467.834473,726.541199 1466.868774,716.684631 
	C1465.778442,705.556030 1464.312866,694.384216 1461.889160,683.480408 
	C1452.775879,642.480042 1432.973267,606.934937 1403.566406,577.290527 
	C1322.707642,495.778625 1241.304688,414.806824 1160.120117,333.618195 
	C1139.265015,312.762146 1118.421021,291.895111 1097.323730,270.784882 
	C1095.163574,273.414581 1093.095825,275.946655 1091.012451,278.465790 
	C1078.212402,293.942688 1064.576904,308.813660 1052.812500,325.041138 
	C1037.385254,346.321350 1022.610168,368.177551 1009.096619,390.710754 
	C997.522461,410.010010 987.398132,430.278625 977.962158,450.731903 
	C968.759766,470.678772 960.330444,491.091522 953.231628,511.870239 
	C945.500183,534.500488 939.364990,557.700134 933.177734,580.823853 
	C930.051758,592.506531 928.347107,604.569458 925.996277,617.351501 
z"/>
<path fill="#FFFFFF" opacity="1.000000" stroke="none" 
	d="
M754.468628,1468.000000 
	C757.731018,1467.333862 761.436951,1466.406128 765.197266,1466.046265 
	C782.855103,1464.357178 799.738220,1459.514160 816.208130,1453.265503 
	C835.760498,1445.847290 854.060974,1436.017944 870.563660,1423.053711 
	C875.816345,1418.927246 881.336609,1415.030884 886.043335,1410.336182 
	C955.183777,1341.373779 1024.208740,1272.295532 1093.246826,1203.230469 
	C1094.402344,1202.074585 1095.381226,1200.741943 1096.873047,1198.984863 
	C1101.615845,1204.227051 1105.552734,1209.092285 1110.016602,1213.413086 
	C1121.902588,1224.918579 1133.681274,1236.571167 1146.112671,1247.469238 
	C1167.639771,1266.341187 1190.211670,1283.904541 1213.900635,1300.052124 
	C1243.285400,1320.082520 1273.904297,1337.968750 1306.156982,1352.859375 
	C1325.959839,1362.002075 1346.109375,1370.634521 1366.703613,1377.760376 
	C1391.578369,1386.367188 1416.951782,1393.644775 1442.376953,1400.505493 
	C1456.697388,1404.369629 1471.499512,1406.601685 1486.188965,1408.903076 
	C1501.787964,1411.347168 1517.492798,1413.157593 1533.185791,1414.942871 
	C1541.987061,1415.944214 1550.848511,1416.699829 1559.699219,1416.927612 
	C1581.278442,1417.483276 1602.880249,1418.268311 1624.448120,1417.805908 
	C1641.147705,1417.448242 1657.843750,1415.664062 1674.478638,1413.917358 
	C1689.190186,1412.372803 1703.959595,1410.727051 1718.445190,1407.833618 
	C1741.036987,1403.321045 1763.693481,1398.696777 1785.800537,1392.311890 
	C1810.294189,1385.237549 1834.301147,1376.409546 1858.315796,1367.776733 
	C1868.422974,1364.143555 1878.229492,1359.484131 1887.783081,1354.538330 
	C1909.518066,1343.286133 1931.510376,1332.397095 1952.461060,1319.802002 
	C1972.634277,1307.674194 1992.158813,1294.291992 2010.987793,1280.154785 
	C2028.481934,1267.019775 2045.013184,1252.532227 2061.348389,1237.945679 
	C2074.590088,1226.121582 2087.463623,1213.778809 2099.529541,1200.765991 
	C2127.567383,1170.527466 2152.949951,1138.119019 2175.072998,1103.283813 
	C2184.047852,1089.151611 2192.425049,1074.607910 2200.429443,1059.900513 
	C2208.050293,1045.898071 2215.252930,1031.631714 2221.888672,1017.137695 
	C2234.131104,990.397644 2245.070557,963.072998 2252.841064,934.689758 
	C2259.556152,910.162842 2265.519043,885.398438 2270.816895,860.526550 
	C2274.160400,844.830688 2275.916504,828.775085 2277.919922,812.822510 
	C2279.347900,801.451965 2279.984131,789.982544 2281.010498,778.560669 
	C2281.347656,774.809998 2281.801514,771.069763 2282.601074,767.162415 
	C2283.000000,1000.620972 2283.000000,1234.241943 2283.000000,1468.000000 
	C1773.645752,1468.000000 1264.291504,1468.000000 754.468628,1468.000000 
z"/>
<path fill="#FFFFFF" opacity="1.000000" stroke="none" 
	d="
M2283.000000,703.531372 
	C2282.333984,699.599487 2281.418945,695.219604 2281.052246,690.794250 
	C2280.224121,680.802185 2280.014648,670.749023 2278.907227,660.792603 
	C2277.651123,649.495850 2276.061279,638.207336 2273.954346,627.040161 
	C2269.882568,605.457886 2266.376465,583.688721 2260.729492,562.505188 
	C2254.369385,538.646179 2246.206299,515.246216 2238.279541,491.832031 
	C2229.279297,465.246307 2217.009766,440.050232 2203.989990,415.241180 
	C2188.974121,386.628723 2172.224609,359.046509 2152.667725,333.299500 
	C2139.866455,316.446442 2126.969482,299.584961 2112.949707,283.759949 
	C2097.020508,265.780243 2080.474854,248.222931 2062.955322,231.807404 
	C2041.202026,211.424774 2017.976440,192.704636 1993.417847,175.623505 
	C1970.861328,159.934784 1947.752686,145.243118 1923.593872,132.190277 
	C1893.690552,116.033646 1862.701416,102.398422 1830.729004,90.779930 
	C1802.686890,80.589706 1774.137695,72.364380 1745.031006,66.127480 
	C1727.783325,62.431732 1710.309692,59.699757 1692.853760,57.097778 
	C1680.424927,55.245129 1667.880005,54.006512 1655.343384,53.084644 
	C1641.197876,52.044472 1627.003418,51.673397 1612.830933,50.996773 
	C1606.243042,50.682251 1599.645752,49.912186 1593.071899,50.084599 
	C1577.724609,50.487129 1562.359009,50.942120 1547.057251,52.113640 
	C1531.925659,53.272129 1516.763184,54.719845 1501.795532,57.154598 
	C1481.701294,60.423244 1461.749878,64.609207 1441.793823,68.678795 
	C1415.893921,73.960487 1390.741089,81.943481 1365.996460,91.087204 
	C1349.591675,97.149185 1333.435913,103.949585 1317.435547,111.022736 
	C1303.296021,117.273254 1289.217163,123.793694 1275.657837,131.195862 
	C1249.165283,145.658691 1223.082275,160.914673 1199.171143,179.453934 
	C1180.116943,194.227524 1161.212158,209.232803 1142.870972,224.874069 
	C1129.793457,236.026703 1117.711792,248.353775 1105.301636,260.277344 
	C1102.595825,262.877045 1100.383301,265.990112 1097.150146,269.802216 
	C1095.887451,268.106293 1094.995117,266.539734 1093.765869,265.309631 
	C1027.450073,198.943497 961.183594,132.527588 894.705688,66.324074 
	C879.556763,51.237705 862.522949,38.460808 843.658447,28.196098 
	C821.542542,16.162191 798.193176,7.813062 773.276733,4.000269 
	C767.645203,3.138518 761.975830,2.524797 756.161926,1.398455 
	C1264.900513,1.000000 1773.800903,1.000000 2283.000000,1.000000 
	C2283.000000,235.020813 2283.000000,469.041748 2283.000000,703.531372 
z"/>
<path fill="#FFFFFF" opacity="1.000000" stroke="none" 
	d="
M1.000002,756.468628 
	C1.998870,759.572998 3.167911,763.108582 3.964817,766.726074 
	C6.392833,777.747803 8.082523,788.969238 11.142933,799.807007 
	C17.307835,821.638611 26.864525,842.059875 40.067177,860.528992 
	C47.534634,870.975159 55.250618,881.482300 64.285019,890.534424 
	C236.221909,1062.807739 408.333191,1234.906982 580.555603,1406.894897 
	C593.563293,1419.885010 608.722473,1430.269653 624.751282,1439.424805 
	C643.492371,1450.129395 663.410583,1457.719727 684.318481,1462.518799 
	C694.902832,1464.948608 705.874084,1465.692749 716.835205,1467.599487 
	C478.406433,1468.000000 239.812881,1468.000000 1.000000,1468.000000 
	C1.000000,1230.979126 1.000000,993.958252 1.000002,756.468628 
z"/>
<path fill="#FFFFFF" opacity="1.000000" stroke="none" 
	d="
M714.531372,1.000000 
	C711.270386,1.666083 707.564331,2.542232 703.807251,2.962918 
	C684.587402,5.115011 666.333618,10.743711 648.456970,17.887693 
	C627.726685,26.172075 609.127747,37.987057 591.749512,51.826637 
	C587.893066,54.897850 584.258118,58.284782 580.768311,61.773590 
	C407.568207,234.926208 234.318588,408.029510 61.331947,581.395142 
	C43.133846,599.633179 30.002867,621.601379 19.727518,645.363220 
	C13.230596,660.387329 8.847576,675.936523 5.184095,691.748901 
	C3.867795,697.430298 3.738941,703.382446 2.963943,709.197144 
	C2.801705,710.414368 2.180933,711.570557 1.385733,712.877441 
	C1.000000,475.739471 1.000000,238.478928 1.000000,1.000000 
	C238.687515,1.000000 476.375092,1.000000 714.531372,1.000000 
z"/>
<path fill="#FFFFFF" opacity="1.000000" stroke="none" 
	d="
M1.000000,715.463196 
	C1.268319,719.221558 1.536637,723.443176 1.402478,727.832397 
	C1.000000,723.975464 1.000000,719.950928 1.000000,715.463196 
z"/>
<path fill="#FFFFFF" opacity="1.000000" stroke="none" 
	d="
M1.000000,741.463196 
	C1.268317,745.221558 1.536635,749.443176 1.402477,753.832397 
	C1.000000,749.975464 1.000000,745.950928 1.000000,741.463196 
z"/>
<path fill="#FFFFFF" opacity="1.000000" stroke="none" 
	d="
M925.997986,616.906006 
	C928.347107,604.569458 930.051758,592.506531 933.177734,580.823853 
	C939.364990,557.700134 945.500183,534.500488 953.231628,511.870239 
	C960.330444,491.091522 968.759766,470.678772 977.962158,450.731903 
	C987.398132,430.278625 997.522461,410.010010 1009.096619,390.710754 
	C1022.610168,368.177551 1037.385254,346.321350 1052.812500,325.041138 
	C1064.576904,308.813660 1078.212402,293.942688 1091.012451,278.465790 
	C1093.095825,275.946655 1095.163574,273.414581 1097.323730,270.784882 
	C1118.421021,291.895111 1139.265015,312.762146 1160.120117,333.618195 
	C1241.304688,414.806824 1322.707642,495.778625 1403.566406,577.290527 
	C1432.973267,606.934937 1452.775879,642.480042 1461.889160,683.480408 
	C1464.312866,694.384216 1465.778442,705.556030 1466.868774,716.684631 
	C1467.834473,726.541199 1468.444092,736.556030 1467.845337,746.418030 
	C1466.407104,770.107788 1461.543213,793.191833 1452.922729,815.368774 
	C1445.407471,834.702881 1435.116089,852.548218 1422.915771,869.276855 
	C1419.356079,874.158142 1415.495483,878.906555 1411.231689,883.175476 
	C1307.482178,987.046448 1203.659424,1090.844360 1099.847168,1194.652588 
	C1099.031860,1195.468018 1098.178223,1196.245117 1097.031250,1197.336426 
	C1093.296021,1193.322021 1089.396484,1189.583130 1086.019409,1185.420288 
	C1074.017090,1170.625732 1061.748291,1156.015625 1050.424316,1140.711182 
	C1038.799316,1124.999756 1027.357788,1109.040771 1017.298889,1092.310547 
	C1004.773254,1071.477783 992.766663,1050.209229 982.344910,1028.269653 
	C971.754761,1005.975586 962.538452,982.930664 954.253906,959.668396 
	C946.558411,938.060120 940.310608,915.881592 934.515991,893.669617 
	C930.403442,877.905334 927.698975,861.733032 925.111572,845.623108 
	C922.581787,829.872498 920.822388,813.989441 919.064270,798.126892 
	C918.033569,788.827942 917.316284,779.464600 917.070679,770.114197 
	C916.512756,748.868896 915.758362,727.601807 916.196350,706.366516 
	C916.502930,691.500000 918.523926,676.658936 920.012695,661.829956 
	C921.152649,650.475708 922.600037,639.150818 924.034363,627.828552 
	C924.480164,624.309814 925.330872,620.842407 925.997986,616.906006 
z"/>
</svg>