<!-- created by svgstack.com | Attribution is required. --><svg width="201" height="201" viewBox="0 0 201 201" fill="none" xmlns="http://www.w3.org/2000/svg"><g clip-path="url(#clip0_105_933)"><path d="M100.92 0.275146C45.6935 0.275146 0.920166 45.045 0.920166 100.275H200.92C200.92 45.045 156.15 0.275146 100.92 0.275146Z" fill="#129C78"/><path d="M100.92 200.275C156.15 200.275 200.92 155.503 200.92 100.275H0.920166C0.920166 155.503 45.6935 200.275 100.92 200.275Z" fill="#129C78"/><path opacity="0.2" fill-rule="evenodd" clip-rule="evenodd" d="M120.65 115.146C119.654 115.146 118.669 115.366 117.767 115.791C116.408 116.431 115.299 117.504 114.616 118.842C113.932 120.181 113.712 121.708 113.991 123.184C114.58 126.458 117.659 128.7 120.986 128.7H131.463L137.537 127.848C127.819 142.107 110.947 148.665 92.4979 145.77C77.4825 143.411 64.592 133.254 59.1226 119.064C46.7794 86.8483 70.307 56.0912 100.963 56.0912C116.944 56.0912 130.951 65.4462 138.986 76.7396V76.9851C139.999 78.4742 141.56 79.5017 143.327 79.8429C145.095 80.1841 146.927 79.8111 148.42 78.8055C149.81 77.8442 150.785 76.3917 151.147 74.7407C151.51 73.0896 151.233 71.3626 150.373 69.9072H150.424C144.748 61.0164 136.778 53.8205 127.356 49.0772C117.934 44.3339 107.408 42.2188 96.8847 42.9543C67.6664 44.9228 44.006 68.8491 42.326 98.0989C40.3731 132.142 67.3773 159.938 100.963 159.938C109.345 159.971 117.635 158.191 125.264 154.719C132.893 151.247 139.681 146.166 145.162 139.825L143.889 146.962V153.407C143.889 156.728 146.127 159.809 149.405 160.399C150.385 160.584 151.393 160.551 152.358 160.301C153.324 160.053 154.223 159.594 154.99 158.957C155.758 158.321 156.376 157.522 156.799 156.62C157.224 155.717 157.444 154.733 157.443 153.736V115.146H120.65Z" fill="black"/><path fill-rule="evenodd" clip-rule="evenodd" d="M120.65 113.83C119.654 113.83 118.669 114.051 117.767 114.475C116.408 115.115 115.299 116.189 114.616 117.527C113.932 118.865 113.712 120.392 113.991 121.869C114.58 125.142 117.659 127.385 120.986 127.385H131.463L137.537 126.533C127.819 140.791 110.947 147.349 92.4979 144.454C77.4825 142.095 64.592 131.938 59.1226 117.748C46.7794 85.5326 70.307 54.7755 100.963 54.7755C116.944 54.7755 130.951 64.1305 138.986 75.4239V75.6695C139.999 77.1585 141.56 78.186 143.327 78.5272C145.095 78.8684 146.927 78.4954 148.42 77.4899C149.81 76.5285 150.785 75.076 151.147 73.425C151.51 71.7739 151.233 70.047 150.373 68.5916H150.424C144.748 59.7008 136.778 52.5049 127.356 47.7616C117.934 43.0183 107.408 40.9031 96.8847 41.6387C67.6664 43.6071 44.006 67.5334 42.326 96.7833C40.3731 130.826 67.3773 158.623 100.963 158.623C109.345 158.656 117.635 156.875 125.264 153.403C132.893 149.932 139.681 144.85 145.162 138.509L143.889 145.646V152.091C143.889 155.412 146.127 158.494 149.405 159.083C150.385 159.269 151.393 159.236 152.358 158.986C153.324 158.737 154.223 158.278 154.99 157.641C155.758 157.006 156.376 156.207 156.799 155.304C157.224 154.402 157.444 153.417 157.443 152.42V113.83H120.65Z" fill="white"/></g><defs><clipPath id="clip0_105_933"><rect width="200" height="200" fill="white" transform="translate(0.920166 0.275146)"/></clipPath></defs></svg> 