<?xml version="1.0" encoding="UTF-8" standalone="no"?>
<!-- created by svgstack.com | Attribution is required. -->

<svg
   width="201"
   height="201"
   viewBox="0 0 201 201"
   fill="none"
   version="1.1"
   id="svg4"
   sodipodi:docname="midjourney.svg"
   inkscape:version="1.4.3 (0d15f75, 2025-12-25)"
   xmlns:inkscape="http://www.inkscape.org/namespaces/inkscape"
   xmlns:sodipodi="http://sodipodi.sourceforge.net/DTD/sodipodi-0.dtd"
   xmlns="http://www.w3.org/2000/svg"
   xmlns:svg="http://www.w3.org/2000/svg">
  <defs
     id="defs4" />
  <sodipodi:namedview
     id="namedview4"
     pagecolor="#505050"
     bordercolor="#ffffff"
     borderopacity="1"
     inkscape:showpageshadow="0"
     inkscape:pageopacity="0"
     inkscape:pagecheckerboard="1"
     inkscape:deskcolor="#505050"
     inkscape:zoom="4.4029851"
     inkscape:cx="100.5"
     inkscape:cy="100.5"
     inkscape:window-width="1920"
     inkscape:window-height="1129"
     inkscape:window-x="-8"
     inkscape:window-y="-8"
     inkscape:window-maximized="1"
     inkscape:current-layer="svg4" />
  <path
     d="M100.408 200.473H99.9677C44.9496 200.473 0.187744 155.698 0.187744 100.664V100.224C0.187744 45.1893 44.9496 0.414307 99.9677 0.414307H100.408C155.426 0.414307 200.188 45.1893 200.188 100.224V100.664C200.188 155.698 155.426 200.473 100.408 200.473ZM99.9677 7.18609C48.6797 7.18609 6.95754 48.9205 6.95754 100.224V100.664C6.95754 151.967 48.6797 193.701 99.9677 193.701H100.408C151.696 193.701 193.418 151.967 193.418 100.664V100.224C193.418 48.9205 151.696 7.18609 100.408 7.18609H99.9677Z"
     fill="#383D38"
     id="path1"
     style="fill:#c7d0c7;fill-opacity:1" />
  <path
     d="M166.786 153.294C165.398 153.118 164.057 152.725 162.805 152.123C161.458 151.473 160.273 150.436 159.014 149.333C156.787 147.382 154.261 145.175 150.43 144.985C148.676 144.897 146.869 145.229 145.217 145.933L145.034 146.014L135.895 152.414C134.223 153.585 132.388 153.585 130.716 152.414L129.132 151.303L159.318 131.503C160.178 130.94 160.557 129.864 160.232 128.882C159.907 127.907 158.966 127.277 157.931 127.338L43.6362 134.963C42.8441 135.017 42.1332 135.457 41.7406 136.148C41.3479 136.839 41.321 137.672 41.6798 138.389L45.4574 145.899C45.3084 146.021 45.1594 146.143 45.0172 146.265C44.7938 146.455 44.5704 146.637 44.347 146.82C42.0182 148.689 39.9467 150.064 38.0106 151.019C36.4806 151.77 34.8761 152.4 33.2446 152.901C32.0802 153.253 31.4234 154.486 31.7755 155.651C32.1275 156.815 33.3596 157.472 34.524 157.12C36.3857 156.558 38.2136 155.834 39.9602 154.98C42.1942 153.883 44.5299 152.339 47.1159 150.26C47.3529 150.064 47.5965 149.868 47.8402 149.664C49.2009 148.533 50.4941 147.464 51.8751 147.464C52.938 147.464 54.0143 147.911 54.9891 148.757L62.3141 155.109C65.5907 157.946 69.7879 158.251 73.2743 155.901L81.7976 150.159C83.402 149.082 85.162 149.075 86.7665 150.139L95.8246 156.165C99.0808 158.332 102.926 158.21 106.101 155.847L114.028 149.942C115.734 148.669 117.63 148.628 119.35 149.84L128.198 156.044C129.768 157.141 131.535 157.723 133.316 157.723C135.096 157.723 136.863 157.141 138.434 156.044L147.16 149.929C148.155 149.536 149.184 149.36 150.22 149.414C152.522 149.529 154.187 150.985 156.123 152.678C157.545 153.924 159.014 155.21 160.903 156.118C162.581 156.924 164.375 157.459 166.244 157.696C167.456 157.845 168.552 156.991 168.708 155.786C168.857 154.581 168.004 153.477 166.799 153.321L166.786 153.294ZM65.1845 151.757L57.8595 145.405C56.0723 143.854 54.0008 143.035 51.848 143.035C50.9476 143.035 50.081 143.197 49.2009 143.536L46.9939 139.148L150.098 132.274L125.327 148.527C125.327 148.527 125.28 148.561 125.253 148.581L121.875 146.211C118.571 143.895 114.651 143.963 111.388 146.387L103.461 152.292C101.796 153.531 99.9406 153.599 98.255 152.475L89.1969 146.448C87.6602 145.425 85.9677 144.911 84.282 144.911C82.5963 144.911 80.87 145.432 79.3197 146.482L70.7966 152.224C68.9553 153.463 66.9649 153.294 65.1845 151.757Z"
     fill="#383D38"
     id="path2"
     style="fill:#c7d0c7;fill-opacity:1" />
  <path
     d="M50.6972 129.41C51.1237 129.891 51.7398 130.162 52.3829 130.162C52.7891 130.162 53.1885 130.054 53.5337 129.844C60.3171 125.808 71.3992 120.837 85.6428 120.086C96.2782 119.523 107.083 121.453 116.906 125.659C117.745 126.018 118.693 125.875 119.384 125.286C120.074 124.697 120.372 123.783 120.148 122.896C116.283 107.402 109.52 93.1202 100.042 80.4502C85.0065 60.3583 66.6129 49.212 53.8316 43.4018C52.8296 42.9481 51.6449 43.2257 50.9544 44.0858C50.2639 44.9458 50.2435 46.1648 50.9002 47.0451C55.6797 53.4309 63.7425 66.8931 64.0877 85.3462C64.4601 105.249 55.7812 119.693 50.582 126.539C49.9321 127.399 49.9796 128.604 50.6972 129.41ZM68.5017 85.265C68.2173 70.1978 63.0791 58.2659 58.5975 50.6679C69.1923 56.3291 84.0723 66.4598 96.5151 83.0913C104.842 94.2174 111.003 106.671 114.841 120.099C105.472 116.686 95.31 115.156 85.4058 115.677C76.2124 116.165 67.2629 118.338 58.7939 122.144C63.4921 114.086 68.7995 101.362 68.4949 85.2583L68.5017 85.265Z"
     fill="#383D38"
     id="path3"
     style="fill:#c7d0c7;fill-opacity:1" />
  <path
     d="M87.5112 60.1888C98.4174 69.0124 107.455 79.6238 114.367 91.7115C119.85 101.307 123.879 111.668 126.343 122.496C126.485 123.126 126.898 123.667 127.473 123.965C128.049 124.263 128.726 124.297 129.321 124.054C130.879 123.417 133.377 122.719 136.396 123.011C139.706 123.329 142.184 124.683 143.68 125.767C144.059 126.038 144.506 126.18 144.967 126.18C145.427 126.18 145.874 126.038 146.246 125.767C147.018 125.218 147.349 124.236 147.072 123.329C143.091 110.239 136.829 98.1785 128.448 87.4791C118.246 74.457 104.923 63.7033 89.9145 56.3897C88.9058 55.8954 87.6873 56.2409 87.0916 57.1889L87.0238 57.2904C86.4213 58.2385 86.6244 59.4845 87.4977 60.1888H87.5112ZM104.442 70.3058C112.221 76.0279 119.126 82.7118 124.996 90.2014C131.935 99.0657 137.384 108.939 141.196 119.564C139.781 119.083 138.312 118.765 136.829 118.616C136.227 118.555 135.604 118.528 134.994 118.528C133.343 118.528 131.691 118.738 130.086 119.158C127.5 108.756 123.5 98.788 118.206 89.5174C114.286 82.6576 109.662 76.204 104.449 70.299L104.442 70.3058Z"
     fill="#383D38"
     id="path4"
     style="fill:#c7d0c7;fill-opacity:1" />
</svg>
